<?xml version="1.0" encoding="UTF-8"?>
<!DOCTYPE svg PUBLIC "-//W3C//DTD SVG 1.1//EN" "http://www.w3.org/Graphics/SVG/1.1/DTD/svg11.dtd">
<!-- Creator: CorelDRAW (Evaluation Version) -->
<svg xmlns="http://www.w3.org/2000/svg" xml:space="preserve" width="8.4666mm" height="8.4666mm" version="1.1" style="shape-rendering:geometricPrecision; text-rendering:geometricPrecision; image-rendering:optimizeQuality; fill-rule:evenodd; clip-rule:evenodd"
viewBox="0 0 846.66 846.66"
 xmlns:xlink="http://www.w3.org/1999/xlink"
 xmlns:xodm="http://www.corel.com/coreldraw/odm/2003">
 <defs>
  <style type="text/css">
   <![CDATA[
    .str0 {stroke:#D6B432;stroke-width:20;stroke-miterlimit:22.9256}
    .fil0 {fill:#D6B432}
   ]]>
  </style>
 </defs>
 <g id="Layer_x0020_1">
  <metadata id="CorelCorpID_0Corel-Layer"/>
  <path class="fil0 str0" d="M411.1 98.96c148.66,0 269.18,120.52 269.18,269.18 0,49.21 -13.2,95.32 -36.25,135.01l4.04 -8.47 -7.97 15.02c-9.88,15.95 -21.38,30.79 -34.28,44.3l-185.52 200.66 0 -119.64 130.64 -138.65 17.58 -22.72c19.74,-29.94 31.24,-65.81 31.24,-104.36 0,-104.83 -84.98,-189.81 -189.81,-189.81 -104.83,0 -189.81,84.98 -189.81,189.81 0,104.45 84.36,189.19 188.66,189.81l0 78.21c-147.6,-1.23 -266.88,-121.27 -266.88,-269.17 0,-148.66 120.52,-269.18 269.18,-269.18z"/>
 </g>
</svg>
